# xmcd
#
# Track frame offsets:
#	150
#	28425
#	40833
#	60010
#	82668
#	102758
#	119602
#	158028
#	185564
#	210072
#	227321
#	241064
#	255526
#	275531
#	289106
#
# Disc length: 4018 seconds
#
# Revision: 0
# Processed by: cddbd v1.5.2PL0 Copyright (c) Steve Scherf et al.
# Submitted via: EZCDAudioConverter 2.1.7.1
#
DISCID=b60fb00f
DTITLE=V/A - 285_Kiss The Sky
DYEAR=1900
DGENRE=
TTITLE0=Brant Bjork and The Bros - Freak Levels
TTITLE1=13th Floor Elevators - Reverberation
TTITLE2=The Flames - Purple Haze
TTITLE3=Andromeda - Day Of The Change
TTITLE4=Flowers Must Die - After Gong
TTITLE5=Endless Boogie - Let It Be Unknown
TTITLE6=Black Mountrain - Mothers Of The Sun
TTITLE7=Hedvig Mollestad Trio - Liquid Bridges
TTITLE8=The Bevis Frond - London Stone
TTITLE9=Wolf People - Night Witch
TTITLE10=Goat - Union Of Mind And Soul
TTITLE11=Sun Ra - I Am Strange
TTITLE12=Earl King - Come On (Part 1 and 2)
TTITLE13=Guitar Slim - The Things That I Used To Do
TTITLE14=Mickey Baker - Whistle Stop
EXTD=
EXTT0=
EXTT1=
EXTT2=
EXTT3=
EXTT4=
EXTT5=
EXTT6=
EXTT7=
EXTT8=
EXTT9=
EXTT10=
EXTT11=
EXTT12=
EXTT13=
EXTT14=
PLAYORDER=
